<svg width="136.000000" height="136.000000" viewBox="0 0 136 136" fill="none" xmlns="http://www.w3.org/2000/svg" xmlns:xlink="http://www.w3.org/1999/xlink">
	<desc>
			Created with Pixso.
	</desc>
	<defs>
		<clipPath id="clip11_303">
			<rect id="Icon / garantee" width="136.000000" height="136.000000" fill="white" fill-opacity="0"/>
		</clipPath>
	</defs>
	<g clip-path="url(#clip11_303)">
		<path id="Vector" d="M37.7654 115.843C19.4059 109.501 15.3116 94.6765 14.8392 76.7833C14.7291 72.6152 14.8214 68.4729 14.9304 64.3075C23.0352 62.8951 30.7961 60.2943 37.912 56.0698C42.2019 58.6146 46.5483 60.4875 51.2843 61.9835C51.6139 62.0876 51.6798 62.4933 52.3717 62.4933C52.7065 62.4933 52.6366 62.3998 52.8694 62.4661C55.6586 63.2611 58.0159 63.8053 60.8964 64.3075C61.1587 74.2556 61.3794 85.5455 58.4429 95.0542C55.1289 105.785 48.4479 112.255 38.0586 115.843L37.7654 115.843ZM52.7712 75.8162C52.5353 75.5753 52.2153 75.4401 51.8817 75.4401C51.5481 75.4402 51.2283 75.5754 50.9923 75.8164L34.8444 92.3096L27.2162 84.5186C27.0995 84.399 26.9608 84.3043 26.8082 84.2396C26.6555 84.1749 26.4919 84.1416 26.3268 84.1416C26.1615 84.1416 25.9979 84.1748 25.8453 84.2395C25.6926 84.3041 25.554 84.3988 25.4373 84.5183C25.3202 84.6377 25.2273 84.7797 25.1639 84.9358C25.1006 85.092 25.0679 85.2594 25.0679 85.4285C25.0679 85.5975 25.1006 85.765 25.1639 85.9211C25.2273 86.0773 25.3202 86.2192 25.4373 86.3387L33.9542 95.0393C34.0712 95.1589 34.2101 95.2539 34.3629 95.3186C34.5159 95.3834 34.6797 95.4167 34.8452 95.4167C35.0107 95.4167 35.1747 95.3834 35.3275 95.3186C35.4805 95.2539 35.6193 95.1589 35.7362 95.0393L52.7715 77.6353C52.8885 77.5159 52.9814 77.3741 53.0448 77.218C53.1082 77.0619 53.1407 76.8947 53.1407 76.7256C53.1407 76.5566 53.108 76.3893 53.0447 76.2333C52.9813 76.0771 52.8883 75.9354 52.7712 75.8162ZM61.2482 47.4408L61.2482 34.8933C61.2491 34.6764 61.334 34.4685 61.4843 34.3151C61.6344 34.1615 61.8379 34.0748 62.0503 34.0739L91.9298 34.0739L91.9298 47.4408L61.2482 47.4408ZM94.4479 20.8596C94.449 20.6426 94.5338 20.4347 94.684 20.2812C94.8342 20.1277 95.0377 20.041 95.2501 20.04L109.445 20.04C109.658 20.041 109.861 20.1277 110.011 20.2812C110.161 20.4347 110.246 20.6426 110.247 20.8596L110.247 47.4408L94.4479 47.4408L94.4479 20.8596ZM34.0157 40.6256C34.0157 41.2966 33.4639 41.8328 32.9384 42.1501C32.248 42.5671 31.4034 42.7593 30.606 42.7593L17.7191 42.7593C16.9222 42.7593 16.0779 42.5669 15.3881 42.1499C14.8628 41.8325 14.3109 41.2966 14.3109 40.6256L14.3109 38.8474C14.3109 38.177 14.863 37.6414 15.3881 37.3243C16.0781 36.9075 16.9222 36.7151 17.7191 36.7151L29.3881 36.7224C29.6071 36.7621 29.6646 36.8279 29.9156 36.8247L33.0214 36.7999C33.3645 36.8918 33.9312 37.1865 34.0157 37.4716L34.0157 40.6256Z" fill="#C4B5FD" fill-opacity="1.000000" fill-rule="evenodd"/>
		<path id="Vector" d="M53.095 75.4857C53.2546 75.6484 53.3812 75.8418 53.4677 76.0547C53.5541 76.2675 53.5985 76.4956 53.5985 76.726C53.5985 76.9564 53.5541 77.1846 53.4677 77.3973C53.3812 77.6102 53.2546 77.8035 53.095 77.9662L36.0597 95.3704C35.9003 95.5333 35.7108 95.6626 35.5024 95.7507C35.2941 95.839 35.0707 95.8844 34.845 95.8844C34.6194 95.8844 34.396 95.839 34.1876 95.7507C33.9791 95.6626 33.7898 95.5333 33.6302 95.3704L25.1133 86.6697C24.9537 86.5068 24.827 86.3134 24.7406 86.1005C24.6542 85.8876 24.6097 85.6593 24.6097 85.4288C24.6097 85.1982 24.6542 84.9701 24.7406 84.7571C24.827 84.5442 24.9537 84.3508 25.1133 84.1879C25.7817 83.502 26.8698 83.502 27.5399 84.1879L34.8444 91.6482L50.6686 75.4857C51.3383 74.8014 52.4264 74.8014 53.095 75.4857ZM97.4247 74.4718L97.4247 60.438C97.4247 59.4684 98.1945 58.6832 99.1423 58.6832C100.09 58.6832 100.858 59.4681 100.858 60.438L100.858 74.4718C100.858 75.4401 100.09 76.2249 99.1423 76.2249C98.1945 76.2249 97.4247 75.4398 97.4247 74.4718ZM83.687 74.4718L83.687 60.438C83.687 59.9728 83.8679 59.5267 84.1899 59.1978C84.5118 58.8689 84.9486 58.6841 85.4039 58.6841C85.8593 58.6841 86.2959 58.8689 86.6179 59.1978C86.9399 59.5267 87.1208 59.9728 87.1208 60.438L87.1208 74.4718C87.1208 74.9368 86.9399 75.3826 86.6182 75.7114C86.2964 76.0402 85.8599 76.2249 85.4047 76.2249C85.1792 76.225 84.9559 76.1797 84.7476 76.0917C84.5393 76.0037 84.35 75.8745 84.1904 75.7117C84.0309 75.549 83.9044 75.3556 83.818 75.1429C83.7317 74.9302 83.6871 74.702 83.687 74.4718ZM69.9493 74.4718L69.9493 60.438C69.9492 60.2076 69.9935 59.9795 70.0797 59.7667C70.1659 59.5538 70.2922 59.3604 70.4517 59.1975C70.611 59.0345 70.8002 58.9053 71.0085 58.817C71.2168 58.7288 71.4401 58.6833 71.6655 58.6832C72.121 58.6833 72.5579 58.8683 72.88 59.1973C73.202 59.5264 73.3831 59.9727 73.3832 60.438L73.3832 74.4718C73.3828 74.9369 73.2017 75.3828 72.8796 75.7115C72.5575 76.0403 72.1208 76.225 71.6655 76.2249C71.2103 76.2249 70.7739 76.04 70.452 75.7113C70.1302 75.3826 69.9495 74.9366 69.9493 74.4718ZM105.047 103.181C105.047 105.858 102.913 108.038 100.288 108.038C97.6648 108.038 95.5305 105.858 95.5305 103.181C95.5305 100.499 97.6648 98.3191 100.288 98.3191C102.913 98.3191 105.047 100.499 105.047 103.181ZM74.7781 103.181C74.7781 105.858 72.6438 108.038 70.0204 108.038C67.3986 108.038 65.2627 105.858 65.2627 103.181C65.2627 100.499 67.3983 98.3191 70.0204 98.3191C72.6438 98.3191 74.7781 100.499 74.7781 103.181ZM37.9117 115.399C48.4214 111.771 54.814 105.25 58.006 94.9133C60.8608 85.67 60.7103 74.6326 60.4485 64.7037C58.3131 64.3307 56.1951 63.8606 54.1006 63.295C53.6464 63.1737 53.1978 63.0453 52.7462 62.9166C52.6233 62.9454 52.4976 62.9603 52.3715 62.9611C51.9114 62.9611 51.4698 62.7645 51.1487 62.4304C46.3333 60.9093 41.8185 58.9286 37.9117 56.611C31.3473 60.5068 23.2897 63.3246 15.3779 64.704C15.1176 74.6328 14.9625 85.6704 17.8188 94.9136C21.0125 105.25 27.405 111.771 37.9117 115.399ZM119.543 50.4822L50.3196 50.4822L53.5898 59.5138C56.5656 60.3743 59.3568 61.001 62.3787 61.4634C63.2007 61.5906 63.8199 62.3015 63.8417 63.15C64.0254 69.9377 64.2223 77.3049 63.5032 84.4254L101.191 84.4282C104.687 84.4282 107.651 82.4933 109.119 79.2517L121.067 52.9222C121.189 52.661 121.243 52.3723 121.226 52.0835C121.208 51.7947 121.119 51.515 120.967 51.2711C120.815 51.0271 120.604 50.8267 120.355 50.6887C120.106 50.5507 119.827 50.4796 119.543 50.4822ZM61.7061 34.8934C61.7061 34.7013 61.8639 34.5416 62.0504 34.5416L91.4718 34.5416L91.4718 46.9731L61.7061 46.9731L61.7061 34.8934ZM95.25 20.5078L109.445 20.5078C109.632 20.5078 109.789 20.6675 109.789 20.8596L109.789 46.9731L94.9055 46.9731L94.9055 20.8596C94.9055 20.6675 95.0632 20.5078 95.25 20.5078ZM33.5577 37.6133L33.5577 40.6257C33.5577 41.3959 32.2686 42.2916 30.6058 42.2916L17.719 42.2916C16.0577 42.2916 14.7686 41.3959 14.7686 40.6257L14.7686 38.8475C14.7686 38.0789 16.0577 37.1831 17.719 37.1831L29.308 37.1831C29.4541 37.2097 29.5514 37.2952 29.9214 37.2925L32.905 37.2526C33.2639 37.3486 33.4941 37.5156 33.5577 37.6133ZM101.191 87.9363C106.059 87.9363 110.189 85.2416 112.236 80.7286L124.184 54.3979C125.76 50.9282 123.283 46.9731 119.543 46.9731L113.223 46.9731L113.223 20.8596C113.223 18.731 111.528 17 109.445 17L95.25 17C93.1661 17 91.4718 18.731 91.4718 20.8596L91.4718 31.0338L62.0504 31.0338C59.9653 31.0338 58.2722 32.7648 58.2722 34.8934L58.2722 46.9731L49.0519 46.9731L46.2548 39.2498C45.0264 35.8544 41.9587 33.6741 38.4222 33.6741C38.386 33.6741 38.3469 33.6741 38.3109 33.6769L33.2115 33.7419C32.928 33.698 32.6417 33.6752 32.3549 33.6738L17.719 33.6738C14.139 33.6738 11.3333 35.9473 11.3333 38.8475L11.3333 40.6257C11.3333 43.5259 14.139 45.7994 17.719 45.7994L30.6058 45.7994C34.187 45.7994 36.9912 43.5259 36.9912 40.6257L36.9711 37.2009L38.4225 37.1831C40.5364 37.1831 42.2991 38.4368 43.0341 40.4662L49.4369 58.1571C45.5548 56.7469 41.9459 55.0249 38.806 53.0721C38.5367 52.9047 38.2277 52.816 37.9125 52.816C37.5972 52.816 37.2881 52.9047 37.0188 53.0721C30.2676 57.2673 21.7214 60.1997 13.4474 61.4636C13.0486 61.5248 12.6836 61.7273 12.4161 62.0355C12.1487 62.3439 11.996 62.7384 11.9845 63.1503C11.6981 73.7251 11.3754 85.7103 14.5442 95.9688C18.1038 107.493 25.576 114.999 37.3834 118.915C37.7281 119.028 38.0992 119.028 38.444 118.915C49.4497 115.263 56.6862 108.492 60.5018 98.257C61.2573 98.3577 62.5609 98.3191 63.3567 98.3191C59.4983 103.836 63.3651 111.546 70.0201 111.546C76.6918 111.546 80.5341 103.811 76.682 98.3191L93.6261 98.3191C89.7743 103.81 93.6161 111.546 100.288 111.546C106.945 111.546 110.809 103.835 106.951 98.3191L113.506 98.3191C114.457 98.3191 115.224 97.5342 115.224 96.5659C115.224 95.5977 114.457 94.8113 113.506 94.8113L61.6219 94.8113C62.2471 92.582 62.7173 90.2806 63.0691 87.9348L101.191 87.9363Z" fill="#8B5CF6" fill-opacity="1.000000" fill-rule="evenodd"/>
	</g>
</svg>
