<svg width="305.000000" height="74.000000" viewBox="0 0 305 74" fill="none" xmlns="http://www.w3.org/2000/svg" xmlns:xlink="http://www.w3.org/1999/xlink">
	<desc>
			Created with Pixso.
	</desc>
	<defs/>
	<mask id="mask15_70" mask-type="alpha" maskUnits="userSpaceOnUse" x="0.000000" y="0.000000" width="50.000000" height="74.000000">
		<path id="Vector" d="M0 0L50 0L50 74L0 74L0 0Z" fill="#000000" fill-opacity="1.000000" fill-rule="evenodd"/>
	</mask>
	<g mask="url(#mask15_70)">
		<path id="Vector" d="M25.9083 0C23.1091 0.000732422 20.4248 1.10059 18.4454 3.05737C16.4661 5.01416 15.3538 7.66797 15.353 10.4355L15.353 15.176L10.5578 15.176C9.17068 15.175 7.79689 15.4443 6.51511 15.9685C5.23332 16.4929 4.0687 17.262 3.08786 18.2317C2.10701 19.2014 1.32921 20.353 0.798935 21.6201C0.268661 22.8875 -0.00364685 24.2456 -0.00244141 25.6169L-0.00244141 36.0488L15.3505 36.0488L15.3505 45.53L10.5554 45.53C7.75537 45.5298 5.06987 46.6289 3.08951 48.5859C1.10913 50.543 -0.00393677 53.1973 -0.00491333 55.9653L-0.00491333 73.9944L10.5603 73.9944C11.9462 73.9939 13.3183 73.7234 14.5984 73.198C15.8784 72.6733 17.0413 71.9041 18.0207 70.9348C19.0001 69.9656 19.7767 68.8149 20.3063 67.5486C20.8358 66.2822 21.1079 64.9258 21.1071 63.5557L21.1206 63.5557L21.1206 56.668L21.0923 56.6716L21.0923 12.7905L21.1157 12.7961L21.1157 10.4373C21.1181 9.17944 21.6237 7.97388 22.522 7.08325C23.4204 6.19263 24.6386 5.6897 25.9108 5.68384L44.2484 5.68384L44.2484 10.4373C44.2445 11.6943 43.7372 12.8989 42.8374 13.7874C41.9377 14.6758 40.7187 15.1758 39.4471 15.178L23.2858 15.178L23.2858 20.8679L39.4446 20.8679C42.2438 20.8682 44.9285 19.7688 46.9079 17.8123C48.8875 15.8555 49.9997 13.2017 50 10.4343L50 -0.0012207L25.9083 0ZM15.353 30.3582L5.75905 30.3582L5.75905 25.6177C5.76115 24.3584 6.26732 23.1511 7.16701 22.2598C8.06664 21.3684 9.28664 20.8655 10.5603 20.8606L15.3554 20.8606L15.353 30.3582ZM15.353 63.5608C15.3508 64.8179 14.8451 66.0232 13.9465 66.9121C13.0478 67.8018 11.8294 68.3032 10.5578 68.3062L5.75658 68.3062L5.75658 55.9685C5.75774 54.7104 6.26416 53.5046 7.16447 52.6157C8.06485 51.7266 9.28537 51.2275 10.5578 51.228L15.353 51.228L15.353 63.5608ZM23.2858 36.0483L35.3965 36.0483L35.3965 40.7937C35.3918 42.0508 34.8842 43.2546 33.9846 44.1428C33.0851 45.031 31.8666 45.5312 30.5952 45.5344L23.2858 45.5344L23.2858 51.228L30.5977 51.228C31.9841 51.2288 33.3569 50.9592 34.6379 50.4351C35.9188 49.9109 37.0828 49.1423 38.063 48.1731C39.0434 47.2039 39.8208 46.0532 40.3511 44.7869C40.8813 43.5205 41.1538 42.1631 41.1531 40.7925L41.158 40.7925L41.158 30.3569L23.2858 30.3569L23.2858 36.0483Z" fill="#A78BFA" fill-opacity="1.000000" fill-rule="nonzero"/>
	</g>
	<path id="FromBoard Delivery" d="M60.3105 33.7285L60.3105 30.7988L68.9531 30.7988L68.9531 26.8613L55.8457 26.8613L55.8457 44L60.3105 44L60.3105 37.5664L67.0078 37.5664L67.0078 33.7285L60.3105 33.7285ZM79.99 31.5195L78.8416 31.5195C76.7029 31.5195 75.865 32.4805 75.6014 32.9375L75.1209 32.9375L75.1209 31.5195L71.0662 31.5195L71.0662 44L75.2381 44L75.2381 38.9609C75.2381 36.6582 76.2225 35.3574 78.9119 35.3574L79.99 35.3574L79.99 31.5195ZM88.2262 31.209C84.2418 31.209 81.5524 33.7285 81.5524 37.7598C81.5524 41.791 84.2418 44.3105 88.2262 44.3105C92.234 44.3105 94.8707 41.791 94.8707 37.7598C94.8707 33.7285 92.234 31.209 88.2262 31.209ZM88.2262 40.9062C86.4743 40.9062 85.7301 39.5117 85.7301 37.7598C85.7301 36.0312 86.4743 34.6133 88.2262 34.6133C89.9782 34.6133 90.6989 36.0312 90.6989 37.7598C90.6989 39.5117 89.9782 40.9062 88.2262 40.9062ZM116.903 36.4648C116.903 33.3418 115.514 31.209 112.198 31.209C110.686 31.209 109.538 31.7363 108.887 32.6504L108.407 32.6504C107.786 31.7598 106.678 31.209 105.19 31.209C103.801 31.209 102.647 31.7129 102.049 32.6504L101.569 32.6504L101.569 31.5195L97.5142 31.5195L97.5142 44L101.686 44L101.686 37.543C101.686 36.1309 102.167 34.8535 103.538 34.8535C104.762 34.8535 105.12 35.7441 105.12 37.1387L105.12 44L109.297 44L109.297 37.209C109.297 35.9141 109.848 34.8535 111.143 34.8535C112.368 34.8535 112.725 35.7441 112.725 37.1387L112.725 44L116.903 44L116.903 36.4648ZM132.672 35.4102L132.672 34.9297C133.656 34.4023 134.424 33.0781 134.424 31.5664C134.424 29.0234 132.578 26.8613 128.664 26.8613L120.262 26.8613L120.262 44L128.928 44C133.059 44 134.881 41.8379 134.881 38.9375C134.881 37.2793 133.727 35.8906 132.672 35.4102ZM124.727 30.4648L128.014 30.4648C128.975 30.4648 129.842 30.8223 129.842 31.9531C129.842 33.0781 129.021 33.418 128.066 33.418L124.727 33.418L124.727 30.4648ZM128.207 40.3262L124.727 40.3262L124.727 37.0156L128.277 37.0156C129.408 37.0156 130.299 37.4492 130.299 38.7207C130.299 39.9453 129.215 40.3262 128.207 40.3262ZM143.786 31.209C139.802 31.209 137.112 33.7285 137.112 37.7598C137.112 41.791 139.802 44.3105 143.786 44.3105C147.794 44.3105 150.431 41.791 150.431 37.7598C150.431 33.7285 147.794 31.209 143.786 31.209ZM143.786 40.9062C142.034 40.9062 141.29 39.5117 141.29 37.7598C141.29 36.0312 142.034 34.6133 143.786 34.6133C145.538 34.6133 146.259 36.0312 146.259 37.7598C146.259 39.5117 145.538 40.9062 143.786 40.9062ZM158.447 31.209C155.23 31.209 153.021 32.791 152.904 35.1172L157.029 35.1172C157.129 34.5195 157.633 34.1621 158.687 34.1621C159.742 34.1621 160.393 34.5664 160.393 35.7441L160.393 35.9609L157.51 35.9609C153.719 35.9609 152.254 38.1699 152.254 40.1094C152.254 42.3418 153.842 44.3105 156.795 44.3105C158.447 44.3105 159.361 43.7598 160.082 42.9922L160.562 42.9922L160.562 44L164.4 44L164.4 36.1309C164.4 32.457 161.975 31.209 158.447 31.209ZM160.393 39.1543C160.393 40.3262 159.578 41.2402 158.207 41.2402C157.105 41.2402 156.432 40.7598 156.432 39.8223C156.432 38.9375 157.223 38.4336 158.377 38.4336L160.393 38.4336L160.393 39.1543ZM176.494 31.5195L175.346 31.5195C173.207 31.5195 172.369 32.4805 172.105 32.9375L171.625 32.9375L171.625 31.5195L167.57 31.5195L167.57 44L171.742 44L171.742 38.9609C171.742 36.6582 172.726 35.3574 175.416 35.3574L176.494 35.3574L176.494 31.5195ZM187.033 26.5508L187.033 32.6211L186.552 32.6211C186.095 31.9297 185.258 31.209 183.529 31.209C180.119 31.209 178.056 33.9453 178.056 37.7598C178.056 41.5742 180.119 44.3105 183.529 44.3105C185.281 44.3105 186.218 43.5898 186.67 42.8984L187.15 42.8984L187.15 44L191.211 44L191.211 26.5508L187.033 26.5508ZM184.677 40.9062C182.926 40.9062 182.234 39.4414 182.234 37.7598C182.234 36.0781 182.926 34.6133 184.677 34.6133C186.429 34.6133 187.203 36.0781 187.203 37.7598C187.203 39.4414 186.429 40.9062 184.677 40.9062ZM209.016 26.8613L201.382 26.8613L201.382 44L209.016 44C214.272 44 216.962 40.5664 216.962 35.4336C216.962 30.2715 214.272 26.8613 209.016 26.8613ZM208.296 40.0625L205.847 40.0625L205.847 30.7988L208.296 30.7988C211.296 30.7988 212.397 32.8379 212.397 35.4336C212.397 38 211.296 40.0625 208.296 40.0625ZM227.498 39.9688C227.234 40.5898 226.677 40.9062 225.669 40.9062C224.111 40.9062 223.32 39.9922 223.173 38.3105L231.816 38.3105L231.816 37.3496C231.816 33.6348 229.49 31.209 225.505 31.209C221.591 31.209 219.048 33.6816 219.048 37.7598C219.048 41.8379 221.615 44.3105 225.599 44.3105C229.15 44.3105 231.242 42.6582 231.722 39.9688L227.498 39.9688ZM225.505 34.1855C226.677 34.1855 227.328 34.7598 227.544 35.8145L223.343 35.8145C223.654 34.7598 224.304 34.1855 225.505 34.1855ZM234.458 26.5508L234.458 44L238.63 44L238.63 26.5508L234.458 26.5508ZM241.946 26.5508L241.946 30.0312L246.118 30.0312L246.118 26.5508L241.946 26.5508ZM241.946 31.5195L241.946 44L246.118 44L246.118 31.5195L241.946 31.5195ZM251.59 44L258.481 44L261.839 31.5195L257.831 31.5195L255.551 40.0625L254.637 40.0625L252.358 31.5195L248.233 31.5195L251.59 44ZM271.73 39.9688C271.466 40.5898 270.909 40.9062 269.901 40.9062C268.343 40.9062 267.552 39.9922 267.405 38.3105L276.048 38.3105L276.048 37.3496C276.048 33.6348 273.722 31.209 269.737 31.209C265.823 31.209 263.28 33.6816 263.28 37.7598C263.28 41.8379 265.847 44.3105 269.831 44.3105C273.382 44.3105 275.474 42.6582 275.954 39.9688L271.73 39.9688ZM269.737 34.1855C270.909 34.1855 271.56 34.7598 271.776 35.8145L267.575 35.8145C267.886 34.7598 268.536 34.1855 269.737 34.1855ZM287.614 31.5195L286.466 31.5195C284.327 31.5195 283.489 32.4805 283.225 32.9375L282.745 32.9375L282.745 31.5195L278.69 31.5195L278.69 44L282.862 44L282.862 38.9609C282.862 36.6582 283.846 35.3574 286.536 35.3574L287.614 35.3574L287.614 31.5195ZM299.423 31.5195L296.88 37.4727L296.206 37.4727L293.446 31.5195L289.198 31.5195L294.477 42.7051L291.864 48.7988L295.995 48.7988L303.553 31.5195L299.423 31.5195Z" fill="#F9FAFB" fill-opacity="1.000000" fill-rule="evenodd"/>
</svg>
