<svg width="62.500000" height="43.750000" viewBox="0 0 62.5 43.75" fill="none" xmlns="http://www.w3.org/2000/svg" xmlns:xlink="http://www.w3.org/1999/xlink">
	<desc>
			Created with Pixso.
	</desc>
	<defs/>
	<path id="“" d="M27.2887 16.9644C27.2887 21.6072 26.5845 25.5952 25.176 28.9285C23.7676 32.3809 21.9484 35.1785 19.7183 37.3215C17.4883 39.5833 14.9648 41.1904 12.1479 42.1428C9.21362 43.2144 6.33801 43.75 3.52112 43.75L3.52112 37.5C6.57275 37.5 9.44836 36.4285 12.1479 34.2856C14.73 32.262 16.2559 29.4644 16.7253 25.8928C16.3732 26.012 15.9625 26.1309 15.493 26.25C15.1409 26.3691 14.73 26.488 14.2606 26.6072C13.6737 26.7261 13.0281 26.7856 12.324 26.7856C8.8028 26.7856 5.86853 25.4167 3.52112 22.6785C1.17371 20.0596 0 16.9644 0 13.3928C0 9.82153 1.23236 6.66675 3.6972 3.92847C6.04462 1.30957 9.21362 0 13.2042 0C17.6643 0 21.1268 1.66675 23.5916 5C26.0563 8.45239 27.2887 12.4404 27.2887 16.9644ZM62.5 16.9644C62.5 21.6072 61.7958 25.5952 60.3873 28.9285C58.9789 32.3809 57.1596 35.1785 54.9296 37.3215C52.6995 39.5833 50.176 41.1904 47.3591 42.1428C44.4249 43.2144 41.5493 43.75 38.7324 43.75L38.7324 37.5C41.7841 37.5 44.6596 36.4285 47.3591 34.2856C49.9413 32.262 51.4672 29.4644 51.9366 25.8928C51.5845 26.012 51.1737 26.1309 50.7042 26.25C50.3521 26.3691 49.9413 26.488 49.4718 26.6072C48.8849 26.7261 48.2394 26.7856 47.5352 26.7856C44.0141 26.7856 41.0798 25.4167 38.7324 22.6785C36.3849 20.0596 35.2112 16.9644 35.2112 13.3928C35.2112 9.82153 36.4437 6.66675 38.9084 3.92847C41.2559 1.30957 44.4249 0 48.4155 0C52.8756 0 56.338 1.66675 58.8028 5C61.2676 8.45239 62.5 12.4404 62.5 16.9644Z" fill="#EDE9FE" fill-opacity="1.000000" fill-rule="evenodd"/>
</svg>
